# xmcd
#
# Track frame offsets:
#	150
#	18077
#	35775
#	56565
#	77771
#	96824
#	111779
#	131666
#	151186
#	165024
#	186627
#	203656
#	219866
#	239054
#	259343
#
# Disc length: 3592 seconds
#
# Revision: 1
# Processed by: cddbd v1.5.2PL0 Copyright (c) Steve Scherf et al.
# Submitted via: audiograbber 1.83.01
#
DISCID=c70e060f
DTITLE=Sara Evans - 90294
DYEAR=2012
DGENRE=Country
TTITLE0=Suds In The Bucket
TTITLE1=Born To Fly
TTITLE2=I Could Not Ask For More
TTITLE3=Tonight
TTITLE4=Perfect
TTITLE5=Fool, I'm A Woman
TTITLE6=Backseat Of A Greyhound Bus
TTITLE7=I Keep Looking
TTITLE8=Cryin' Game
TTITLE9=Saints and Angels
TTITLE10=No Place That Far
TTITLE11=Cheatin'
TTITLE12=Real Fine Place To Start, A
TTITLE13=Let's Dance
TTITLE14=Shame About That
EXTD=
EXTT0=
EXTT1=
EXTT2=
EXTT3=
EXTT4=
EXTT5=
EXTT6=
EXTT7=
EXTT8=
EXTT9=
EXTT10=
EXTT11=
EXTT12=
EXTT13=
EXTT14=
PLAYORDER=
